HIERARCHY
ROOT Hips
{
	OFFSET 0.00000 0.00000 0.00000
	CHANNELS 6 Xposition Yposition Zposition Yrotation Zrotation Xrotation 
	JOINT Lumbar
	{
		OFFSET 0 0 0
		CHANNELS 3 Zrotation Xrotation Yrotation
		JOINT Neck
		{
			OFFSET 0.00 0.2701 0.00
			CHANNELS 3 Zrotation Xrotation Yrotation
			End Site
			{
				OFFSET 0.00 0.1379 0.00
			}
		}
		JOINT RightShoulder
		{
			OFFSET 0.0119 0.2289 0.1181
			CHANNELS 3 Zrotation Xrotation Yrotation
			JOINT RightElbow
			{
				OFFSET 0.00 -0.1475 0.00
				CHANNELS 2 Zrotation Yrotation
				JOINT RightWrist
				{
					OFFSET 0.00 -0.1605 0.00
					CHANNELS 2 Zrotation Xrotation
					End Site
					{
						OFFSET 0.0040 -0.1068 0.0006
					}
				}
			}
		}
		JOINT LeftShoulder
		{
			OFFSET 0.0119 0.2289 -0.1181
			CHANNELS 3 Zrotation Xrotation Yrotation
			JOINT LeftElbow
			{
				OFFSET 0.00 -0.1475 0.00
				CHANNELS 2 Zrotation Yrotation
				JOINT LeftWrist
				{
					OFFSET 0.00 -0.1605 0.00
					CHANNELS 2 Zrotation Xrotation
					End Site
					{
						OFFSET 0.0040 -0.1068 -0.0006
					}
				}
			}
		}
	}
	JOINT RightHip
	{
		OFFSET 0.0316 -0.0424 0.0458
		CHANNELS 3 Zrotation Xrotation Yrotation
		JOINT RightKnee
		{
			OFFSET 0.00 -0.2438 0.00
			CHANNELS 1 Zrotation
			JOINT RightAnkle
			{
				OFFSET 0.00 -0.2449 0.00
				CHANNELS 3 Zrotation Xrotation Yrotation
				End Site
				{
					OFFSET 0.1237 -0.0542 0.0051
				}
			}
		}
	}
	JOINT LeftHip
	{
		OFFSET 0.0316 -0.0424 -0.0458
		CHANNELS 3 Zrotation Xrotation Yrotation
		JOINT LeftKnee
		{
			OFFSET 0.00 -0.2438 0.00
			CHANNELS 1 Zrotation
			JOINT LeftAnkle
			{
				OFFSET 0.00 -0.2449 0.00
				CHANNELS 3 Zrotation Xrotation Yrotation
				End Site
				{
					OFFSET 0.1237 -0.0542 -0.0051
				}
			}
		}
	}
}
MOTION
Frames: 13
Frame Time: 0.02
0.14445 -0.25863 0.0209 28.00365 -18.51854 7.12966 16.60205 -3.2162 7.79669 -4.69129 -6.67387 -0.81841 89.78849 -10.44421 34.97678 91.37603 80.48641 -5.35946 -1.20565 63.86604 29.30205 -9.38029 116.54278 -80.15989 -5.19815 1.94391 41.33675 -11.8694 -2.82721 -138.81526 -5.34106 -2.76469 -2.00726 120.929 8.64239 -0.79701 -127.87937 -5.87443 1.36548 1.27618
0.1445 -0.2586 0.02082 28.01884 -18.19731 7.06073 16.21702 -3.16885 7.67623 -4.67297 -6.67663 -0.81869 89.7698 -10.45229 34.97016 91.4378 80.48419 -5.30602 -1.29748 63.83221 29.27093 -9.34396 116.48832 -80.12343 -5.16608 1.93959 40.89535 -11.80633 -2.89427 -138.71799 -5.34089 -2.76565 -2.00723 120.56391 8.57452 -0.82148 -127.92042 -5.87205 1.36598 1.27646
0.14456 -0.25857 0.02073 28.03989 -17.6471 6.94981 15.59919 -3.09228 7.51881 -4.6402 -6.67679 -0.81903 89.76384 -10.46602 34.9672 91.49521 80.48021 -5.24577 -1.42573 63.81494 29.2421 -9.31382 116.42377 -80.06715 -5.14593 1.93757 40.15435 -11.69784 -3.01167 -138.56299 -5.34048 -2.76857 -2.0081 119.9435 8.47218 -0.86421 -127.9834 -5.86841 1.36644 1.27669
0.14461 -0.25855 0.02063 28.05756 -17.2227 6.86073 15.10726 -3.03156 7.38252 -4.61306 -6.67761 -0.81933 89.75182 -10.47833 34.96163 91.55398 80.47148 -5.19115 -1.53403 63.78981 29.2133 -9.28096 116.36595 -80.02118 -5.12243 1.93447 39.57765 -11.61372 -3.10109 -138.44 -5.34021 -2.77038 -2.00846 119.46446 8.38839 -0.897 -128.03521 -5.86545 1.36697 1.27697
0.14467 -0.25851 0.02055 28.07789 -16.71275 6.76108 14.53758 -2.96066 7.22896 -4.59015 -6.68049 -0.81967 89.74173 -10.48478 34.95946 91.61452 80.48482 -5.12463 -1.65923 63.7674 29.17989 -9.24783 116.29867 -79.96973 -5.09033 1.93147 38.88989 -11.51483 -3.21029 -138.29373 -5.33983 -2.77301 -2.00919 118.88497 8.29334 -0.93639 -128.09177 -5.86205 1.36735 1.27713
0.1447 -0.2585 0.02045 28.09425 -16.32579 6.6731 14.0729 -2.90399 7.10241 -4.55461 -6.6786 -0.81995 89.72907 -10.50626 34.95175 91.67177 80.4536 -5.08154 -1.75663 63.74187 29.15693 -9.21642 116.24902 -79.92517 -5.07885 1.92884 38.36143 -11.43559 -3.29072 -138.18225 -5.33961 -2.77444 -2.00939 118.45358 8.21301 -0.96651 -128.14365 -5.85925 1.36801 1.27752
0.14467 -0.25853 0.0203 28.09777 -16.31433 6.62689 13.94108 -2.8911 7.05674 -4.49129 -6.66325 -0.82001 89.7209 -10.55511 34.92302 91.70717 80.28333 -5.10736 -1.77085 63.71379 29.15883 -9.19153 116.2479 -79.90214 -5.12226 1.92661 38.3194 -11.42103 -3.28202 -138.17539 -5.33988 -2.77205 -2.00786 118.46818 8.18393 -0.96659 -128.17878 -5.85827 1.36947 1.27852
0.14461 -0.25857 0.02013 28.09723 -16.43672 6.5937 13.92394 -2.89388 7.03982 -4.41517 -6.64343 -0.81999 89.70625 -10.62181 34.88982 91.74187 80.07115 -5.15673 -1.7546 63.67938 29.17168 -9.16759 116.26498 -79.88709 -5.18582 1.92469 38.451 -11.42779 -3.24255 -138.20622 -5.34032 -2.7684 -2.00577 118.64368 8.17023 -0.9568 -128.2083 -5.85778 1.37116 1.27972
0.14455 -0.25861 0.01998 28.09889 -16.51041 6.55507 13.86283 -2.89117 7.01136 -4.3425 -6.62624 -0.82002 89.68609 -10.68788 34.86147 91.78601 79.88913 -5.19381 -1.75085 63.64212 29.18181 -9.14105 116.27602 -79.86995 -5.23964 1.92272 38.51991 -11.42511 -3.21556 -138.22333 -5.34068 -2.76537 -2.00396 118.76147 8.14815 -0.95152 -128.23936 -5.8574 1.3728 1.28086
0.14452 -0.25865 0.01982 28.09925 -16.52679 6.51364 13.76116 -2.88074 6.97529 -4.27904 -6.60626 -0.82003 89.70543 -10.72011 34.82009 91.79178 79.66087 -5.23725 -1.75587 63.63252 29.18284 -9.12374 116.27898 -79.84584 -5.29646 1.92055 38.51239 -11.41984 -3.19614 -138.22452 -5.34104 -2.76221 -2.00207 118.80723 8.13126 -0.94657 -128.27511 -5.85633 1.37441 1.28197
0.14443 -0.2587 0.01965 28.10127 -16.69512 6.48087 13.77192 -2.89027 6.96223 -4.19388 -6.59125 -0.82005 89.63654 -10.83009 34.80633 91.87697 79.51805 -5.27322 -1.73269 63.55997 29.20496 -9.0875 116.30109 -79.83815 -5.35148 1.91871 38.70625 -11.42555 -3.15361 -138.26799 -5.34145 -2.75897 -2.00019 119.04228 8.10702 -0.93861 -128.2999 -5.85589 1.3759 1.28305
0.14419 -0.2588 0.01945 28.1091 -17.26964 6.47565 14.08558 -2.95299 7.0071 -4.04921 -6.58968 -0.82007 89.36026 -11.12502 34.85626 92.18465 79.62962 -5.28189 -1.65848 63.3454 29.28636 -8.99835 116.38877 -79.87613 -5.39786 1.91871 39.43973 -11.45713 -3.0494 -138.42401 -5.34198 -2.75598 -1.99858 119.78061 8.06432 -0.92248 -128.29211 -5.86082 1.37776 1.28446
0.14389 -0.25892 0.01922 28.11869 -17.9899 6.47751 14.5057 -3.03504 7.07403 -3.88368 -6.59362 -0.82009 88.98779 -11.50304 34.93654 92.57147 79.82719 -5.2822 -1.55367 63.06164 29.38791 -8.89069 116.49113 -79.93005 -5.44134 1.91876 40.36627 -11.49914 -2.92378 -138.62047 -5.34256 -2.7529 -1.99698 120.70126 8.01269 -0.90395 -128.27411 -5.86282 1.37842 1.28521
